%TF.GenerationSoftware,KiCad,Pcbnew,6.0.4-6f826c9f35~116~ubuntu20.04.1*%
%TF.CreationDate,2022-04-19T18:42:39+07:00*%
%TF.ProjectId,pmod-led-array-8,706d6f64-2d6c-4656-942d-61727261792d,1.0*%
%TF.SameCoordinates,Original*%
%TF.FileFunction,OtherDrawing,Comment*%
%FSLAX46Y46*%
G04 Gerber Fmt 4.6, Leading zero omitted, Abs format (unit mm)*
G04 Created by KiCad (PCBNEW 6.0.4-6f826c9f35~116~ubuntu20.04.1) date 2022-04-19 18:42:39*
%MOMM*%
%LPD*%
G01*
G04 APERTURE LIST*
%ADD10C,0.150000*%
G04 APERTURE END LIST*
D10*
X151002380Y-86047619D02*
X151002380Y-86619047D01*
X151002380Y-86333333D02*
X150002380Y-86333333D01*
X150145238Y-86428571D01*
X150240476Y-86523809D01*
X150288095Y-86619047D01*
X150002380Y-85190476D02*
X150002380Y-85380952D01*
X150050000Y-85476190D01*
X150097619Y-85523809D01*
X150240476Y-85619047D01*
X150430952Y-85666666D01*
X150811904Y-85666666D01*
X150907142Y-85619047D01*
X150954761Y-85571428D01*
X151002380Y-85476190D01*
X151002380Y-85285714D01*
X150954761Y-85190476D01*
X150907142Y-85142857D01*
X150811904Y-85095238D01*
X150573809Y-85095238D01*
X150478571Y-85142857D01*
X150430952Y-85190476D01*
X150383333Y-85285714D01*
X150383333Y-85476190D01*
X150430952Y-85571428D01*
X150478571Y-85619047D01*
X150573809Y-85666666D01*
X150907142Y-84666666D02*
X150954761Y-84619047D01*
X151002380Y-84666666D01*
X150954761Y-84714285D01*
X150907142Y-84666666D01*
X151002380Y-84666666D01*
X150002380Y-84000000D02*
X150002380Y-83904761D01*
X150050000Y-83809523D01*
X150097619Y-83761904D01*
X150192857Y-83714285D01*
X150383333Y-83666666D01*
X150621428Y-83666666D01*
X150811904Y-83714285D01*
X150907142Y-83761904D01*
X150954761Y-83809523D01*
X151002380Y-83904761D01*
X151002380Y-84000000D01*
X150954761Y-84095238D01*
X150907142Y-84142857D01*
X150811904Y-84190476D01*
X150621428Y-84238095D01*
X150383333Y-84238095D01*
X150192857Y-84190476D01*
X150097619Y-84142857D01*
X150050000Y-84095238D01*
X150002380Y-84000000D01*
X150002380Y-83047619D02*
X150002380Y-82952380D01*
X150050000Y-82857142D01*
X150097619Y-82809523D01*
X150192857Y-82761904D01*
X150383333Y-82714285D01*
X150621428Y-82714285D01*
X150811904Y-82761904D01*
X150907142Y-82809523D01*
X150954761Y-82857142D01*
X151002380Y-82952380D01*
X151002380Y-83047619D01*
X150954761Y-83142857D01*
X150907142Y-83190476D01*
X150811904Y-83238095D01*
X150621428Y-83285714D01*
X150383333Y-83285714D01*
X150192857Y-83238095D01*
X150097619Y-83190476D01*
X150050000Y-83142857D01*
X150002380Y-83047619D01*
X150002380Y-82095238D02*
X150002380Y-82000000D01*
X150050000Y-81904761D01*
X150097619Y-81857142D01*
X150192857Y-81809523D01*
X150383333Y-81761904D01*
X150621428Y-81761904D01*
X150811904Y-81809523D01*
X150907142Y-81857142D01*
X150954761Y-81904761D01*
X151002380Y-82000000D01*
X151002380Y-82095238D01*
X150954761Y-82190476D01*
X150907142Y-82238095D01*
X150811904Y-82285714D01*
X150621428Y-82333333D01*
X150383333Y-82333333D01*
X150192857Y-82285714D01*
X150097619Y-82238095D01*
X150050000Y-82190476D01*
X150002380Y-82095238D01*
X150002380Y-81142857D02*
X150002380Y-81047619D01*
X150050000Y-80952380D01*
X150097619Y-80904761D01*
X150192857Y-80857142D01*
X150383333Y-80809523D01*
X150621428Y-80809523D01*
X150811904Y-80857142D01*
X150907142Y-80904761D01*
X150954761Y-80952380D01*
X151002380Y-81047619D01*
X151002380Y-81142857D01*
X150954761Y-81238095D01*
X150907142Y-81285714D01*
X150811904Y-81333333D01*
X150621428Y-81380952D01*
X150383333Y-81380952D01*
X150192857Y-81333333D01*
X150097619Y-81285714D01*
X150050000Y-81238095D01*
X150002380Y-81142857D01*
X151002380Y-79619047D02*
X150335714Y-79619047D01*
X150430952Y-79619047D02*
X150383333Y-79571428D01*
X150335714Y-79476190D01*
X150335714Y-79333333D01*
X150383333Y-79238095D01*
X150478571Y-79190476D01*
X151002380Y-79190476D01*
X150478571Y-79190476D02*
X150383333Y-79142857D01*
X150335714Y-79047619D01*
X150335714Y-78904761D01*
X150383333Y-78809523D01*
X150478571Y-78761904D01*
X151002380Y-78761904D01*
X151002380Y-78285714D02*
X150335714Y-78285714D01*
X150430952Y-78285714D02*
X150383333Y-78238095D01*
X150335714Y-78142857D01*
X150335714Y-78000000D01*
X150383333Y-77904761D01*
X150478571Y-77857142D01*
X151002380Y-77857142D01*
X150478571Y-77857142D02*
X150383333Y-77809523D01*
X150335714Y-77714285D01*
X150335714Y-77571428D01*
X150383333Y-77476190D01*
X150478571Y-77428571D01*
X151002380Y-77428571D01*
X160460000Y-90000000D02*
X151113580Y-90000000D01*
X160460000Y-74000000D02*
X151113580Y-74000000D01*
X151700000Y-90000000D02*
X151700000Y-74000000D01*
X151700000Y-90000000D02*
X151700000Y-74000000D01*
X151700000Y-90000000D02*
X152286421Y-88873496D01*
X151700000Y-90000000D02*
X151113579Y-88873496D01*
X151700000Y-74000000D02*
X151113579Y-75126504D01*
X151700000Y-74000000D02*
X152286421Y-75126504D01*
X166340952Y-69547619D02*
X166388571Y-69500000D01*
X166483809Y-69452380D01*
X166721904Y-69452380D01*
X166817142Y-69500000D01*
X166864761Y-69547619D01*
X166912380Y-69642857D01*
X166912380Y-69738095D01*
X166864761Y-69880952D01*
X166293333Y-70452380D01*
X166912380Y-70452380D01*
X167531428Y-69452380D02*
X167626666Y-69452380D01*
X167721904Y-69500000D01*
X167769523Y-69547619D01*
X167817142Y-69642857D01*
X167864761Y-69833333D01*
X167864761Y-70071428D01*
X167817142Y-70261904D01*
X167769523Y-70357142D01*
X167721904Y-70404761D01*
X167626666Y-70452380D01*
X167531428Y-70452380D01*
X167436190Y-70404761D01*
X167388571Y-70357142D01*
X167340952Y-70261904D01*
X167293333Y-70071428D01*
X167293333Y-69833333D01*
X167340952Y-69642857D01*
X167388571Y-69547619D01*
X167436190Y-69500000D01*
X167531428Y-69452380D01*
X168293333Y-70357142D02*
X168340952Y-70404761D01*
X168293333Y-70452380D01*
X168245714Y-70404761D01*
X168293333Y-70357142D01*
X168293333Y-70452380D01*
X168960000Y-69452380D02*
X169055238Y-69452380D01*
X169150476Y-69500000D01*
X169198095Y-69547619D01*
X169245714Y-69642857D01*
X169293333Y-69833333D01*
X169293333Y-70071428D01*
X169245714Y-70261904D01*
X169198095Y-70357142D01*
X169150476Y-70404761D01*
X169055238Y-70452380D01*
X168960000Y-70452380D01*
X168864761Y-70404761D01*
X168817142Y-70357142D01*
X168769523Y-70261904D01*
X168721904Y-70071428D01*
X168721904Y-69833333D01*
X168769523Y-69642857D01*
X168817142Y-69547619D01*
X168864761Y-69500000D01*
X168960000Y-69452380D01*
X169912380Y-69452380D02*
X170007619Y-69452380D01*
X170102857Y-69500000D01*
X170150476Y-69547619D01*
X170198095Y-69642857D01*
X170245714Y-69833333D01*
X170245714Y-70071428D01*
X170198095Y-70261904D01*
X170150476Y-70357142D01*
X170102857Y-70404761D01*
X170007619Y-70452380D01*
X169912380Y-70452380D01*
X169817142Y-70404761D01*
X169769523Y-70357142D01*
X169721904Y-70261904D01*
X169674285Y-70071428D01*
X169674285Y-69833333D01*
X169721904Y-69642857D01*
X169769523Y-69547619D01*
X169817142Y-69500000D01*
X169912380Y-69452380D01*
X170864761Y-69452380D02*
X170960000Y-69452380D01*
X171055238Y-69500000D01*
X171102857Y-69547619D01*
X171150476Y-69642857D01*
X171198095Y-69833333D01*
X171198095Y-70071428D01*
X171150476Y-70261904D01*
X171102857Y-70357142D01*
X171055238Y-70404761D01*
X170960000Y-70452380D01*
X170864761Y-70452380D01*
X170769523Y-70404761D01*
X170721904Y-70357142D01*
X170674285Y-70261904D01*
X170626666Y-70071428D01*
X170626666Y-69833333D01*
X170674285Y-69642857D01*
X170721904Y-69547619D01*
X170769523Y-69500000D01*
X170864761Y-69452380D01*
X171817142Y-69452380D02*
X171912380Y-69452380D01*
X172007619Y-69500000D01*
X172055238Y-69547619D01*
X172102857Y-69642857D01*
X172150476Y-69833333D01*
X172150476Y-70071428D01*
X172102857Y-70261904D01*
X172055238Y-70357142D01*
X172007619Y-70404761D01*
X171912380Y-70452380D01*
X171817142Y-70452380D01*
X171721904Y-70404761D01*
X171674285Y-70357142D01*
X171626666Y-70261904D01*
X171579047Y-70071428D01*
X171579047Y-69833333D01*
X171626666Y-69642857D01*
X171674285Y-69547619D01*
X171721904Y-69500000D01*
X171817142Y-69452380D01*
X173340952Y-70452380D02*
X173340952Y-69785714D01*
X173340952Y-69880952D02*
X173388571Y-69833333D01*
X173483809Y-69785714D01*
X173626666Y-69785714D01*
X173721904Y-69833333D01*
X173769523Y-69928571D01*
X173769523Y-70452380D01*
X173769523Y-69928571D02*
X173817142Y-69833333D01*
X173912380Y-69785714D01*
X174055238Y-69785714D01*
X174150476Y-69833333D01*
X174198095Y-69928571D01*
X174198095Y-70452380D01*
X174674285Y-70452380D02*
X174674285Y-69785714D01*
X174674285Y-69880952D02*
X174721904Y-69833333D01*
X174817142Y-69785714D01*
X174960000Y-69785714D01*
X175055238Y-69833333D01*
X175102857Y-69928571D01*
X175102857Y-70452380D01*
X175102857Y-69928571D02*
X175150476Y-69833333D01*
X175245714Y-69785714D01*
X175388571Y-69785714D01*
X175483809Y-69833333D01*
X175531428Y-69928571D01*
X175531428Y-70452380D01*
X160960000Y-73500000D02*
X160960000Y-70563580D01*
X180960000Y-73500000D02*
X180960000Y-70563580D01*
X160960000Y-71150000D02*
X180960000Y-71150000D01*
X160960000Y-71150000D02*
X180960000Y-71150000D01*
X160960000Y-71150000D02*
X162086504Y-71736421D01*
X160960000Y-71150000D02*
X162086504Y-70563579D01*
X180960000Y-71150000D02*
X179833496Y-70563579D01*
X180960000Y-71150000D02*
X179833496Y-71736421D01*
M02*
