%TF.GenerationSoftware,KiCad,Pcbnew,6.0.4-6f826c9f35~116~ubuntu20.04.1*%
%TF.CreationDate,2022-04-19T18:42:39+07:00*%
%TF.ProjectId,pmod-led-array-8,706d6f64-2d6c-4656-942d-61727261792d,1.0*%
%TF.SameCoordinates,Original*%
%TF.FileFunction,Copper,L1,Top*%
%TF.FilePolarity,Positive*%
%FSLAX46Y46*%
G04 Gerber Fmt 4.6, Leading zero omitted, Abs format (unit mm)*
G04 Created by KiCad (PCBNEW 6.0.4-6f826c9f35~116~ubuntu20.04.1) date 2022-04-19 18:42:39*
%MOMM*%
%LPD*%
G01*
G04 APERTURE LIST*
G04 Aperture macros list*
%AMRoundRect*
0 Rectangle with rounded corners*
0 $1 Rounding radius*
0 $2 $3 $4 $5 $6 $7 $8 $9 X,Y pos of 4 corners*
0 Add a 4 corners polygon primitive as box body*
4,1,4,$2,$3,$4,$5,$6,$7,$8,$9,$2,$3,0*
0 Add four circle primitives for the rounded corners*
1,1,$1+$1,$2,$3*
1,1,$1+$1,$4,$5*
1,1,$1+$1,$6,$7*
1,1,$1+$1,$8,$9*
0 Add four rect primitives between the rounded corners*
20,1,$1+$1,$2,$3,$4,$5,0*
20,1,$1+$1,$4,$5,$6,$7,0*
20,1,$1+$1,$6,$7,$8,$9,0*
20,1,$1+$1,$8,$9,$2,$3,0*%
G04 Aperture macros list end*
%TA.AperFunction,SMDPad,CuDef*%
%ADD10RoundRect,0.237500X0.287500X0.237500X-0.287500X0.237500X-0.287500X-0.237500X0.287500X-0.237500X0*%
%TD*%
%TA.AperFunction,SMDPad,CuDef*%
%ADD11R,0.900000X0.400000*%
%TD*%
%TA.AperFunction,ComponentPad*%
%ADD12R,1.700000X1.700000*%
%TD*%
%TA.AperFunction,ComponentPad*%
%ADD13O,1.700000X1.700000*%
%TD*%
%TA.AperFunction,ComponentPad*%
%ADD14C,1.700000*%
%TD*%
%TA.AperFunction,ViaPad*%
%ADD15C,0.685800*%
%TD*%
%TA.AperFunction,Conductor*%
%ADD16C,0.254000*%
%TD*%
G04 APERTURE END LIST*
D10*
%TO.P,7,1,K*%
%TO.N,GND*%
X178175000Y-86790000D03*
%TO.P,7,2,A*%
%TO.N,Net-(D7-Pad2)*%
X176425000Y-86790000D03*
%TD*%
%TO.P,4,1,K*%
%TO.N,GND*%
X178175000Y-81000000D03*
%TO.P,4,2,A*%
%TO.N,Net-(D4-Pad2)*%
X176425000Y-81000000D03*
%TD*%
D11*
%TO.P,R1,1,R1.1*%
%TO.N,Net-(D1-Pad2)*%
X173400000Y-75940000D03*
%TO.P,R1,2,R2.1*%
%TO.N,Net-(D2-Pad2)*%
X173400000Y-76740000D03*
%TO.P,R1,3,R3.1*%
%TO.N,Net-(D3-Pad2)*%
X173400000Y-77540000D03*
%TO.P,R1,4,R4.1*%
%TO.N,Net-(D4-Pad2)*%
X173400000Y-78340000D03*
%TO.P,R1,5,R4.2*%
%TO.N,/p1*%
X171700000Y-75940000D03*
%TO.P,R1,6,R3.2*%
%TO.N,/p2*%
X171700000Y-76740000D03*
%TO.P,R1,7,R2.2*%
%TO.N,/p3*%
X171700000Y-77540000D03*
%TO.P,R1,8,R1.2*%
%TO.N,/p4*%
X171700000Y-78340000D03*
%TD*%
D10*
%TO.P,5,1,K*%
%TO.N,GND*%
X178175000Y-82930000D03*
%TO.P,5,2,A*%
%TO.N,Net-(D5-Pad2)*%
X176425000Y-82930000D03*
%TD*%
%TO.P,6,1,K*%
%TO.N,GND*%
X178175000Y-84860000D03*
%TO.P,6,2,A*%
%TO.N,Net-(D6-Pad2)*%
X176425000Y-84860000D03*
%TD*%
%TO.P,3,1,K*%
%TO.N,GND*%
X178175000Y-79070000D03*
%TO.P,3,2,A*%
%TO.N,Net-(D3-Pad2)*%
X176425000Y-79070000D03*
%TD*%
%TO.P,2,1,K*%
%TO.N,GND*%
X178175000Y-77140000D03*
%TO.P,2,2,A*%
%TO.N,Net-(D2-Pad2)*%
X176425000Y-77140000D03*
%TD*%
D12*
%TO.P,J1,1,Pin_1*%
%TO.N,/p1*%
X167640000Y-75650000D03*
D13*
%TO.P,J1,2,Pin_2*%
%TO.N,/p3*%
X167640000Y-78190000D03*
%TO.P,J1,3,Pin_3*%
%TO.N,/p5*%
X167640000Y-80730000D03*
%TO.P,J1,4,Pin_4*%
%TO.N,/p7*%
X167640000Y-83270000D03*
%TO.P,J1,5,GND*%
%TO.N,GND*%
X167640000Y-85810000D03*
D14*
%TO.P,J1,6,3.3V*%
%TO.N,+3V3*%
X167640000Y-88350000D03*
%TO.P,J1,7,Pin_7*%
%TO.N,/p2*%
X165100000Y-75650000D03*
D13*
%TO.P,J1,8,Pin_8*%
%TO.N,/p4*%
X165100000Y-78190000D03*
%TO.P,J1,9,Pin_9*%
%TO.N,/p6*%
X165100000Y-80730000D03*
%TO.P,J1,10,Pin_10*%
%TO.N,/p8*%
X165100000Y-83270000D03*
%TO.P,J1,11,GND*%
%TO.N,GND*%
X165100000Y-85810000D03*
%TO.P,J1,12,3.3V*%
%TO.N,+3V3*%
X165100000Y-88350000D03*
%TD*%
D11*
%TO.P,R2,1,R1.1*%
%TO.N,Net-(D5-Pad2)*%
X173400000Y-85590000D03*
%TO.P,R2,2,R2.1*%
%TO.N,Net-(D6-Pad2)*%
X173400000Y-86390000D03*
%TO.P,R2,3,R3.1*%
%TO.N,Net-(D7-Pad2)*%
X173400000Y-87190000D03*
%TO.P,R2,4,R4.1*%
%TO.N,Net-(D8-Pad2)*%
X173400000Y-87990000D03*
%TO.P,R2,5,R4.2*%
%TO.N,/p5*%
X171700000Y-85590000D03*
%TO.P,R2,6,R3.2*%
%TO.N,/p6*%
X171700000Y-86390000D03*
%TO.P,R2,7,R2.2*%
%TO.N,/p7*%
X171700000Y-87190000D03*
%TO.P,R2,8,R1.2*%
%TO.N,/p8*%
X171700000Y-87990000D03*
%TD*%
D10*
%TO.P,8,1,K*%
%TO.N,GND*%
X178175000Y-88720000D03*
%TO.P,8,2,A*%
%TO.N,Net-(D8-Pad2)*%
X176425000Y-88720000D03*
%TD*%
%TO.P,1,1,K*%
%TO.N,GND*%
X178175000Y-75210000D03*
%TO.P,1,2,A*%
%TO.N,Net-(D1-Pad2)*%
X176425000Y-75210000D03*
%TD*%
D15*
%TO.N,GND*%
X179800000Y-77140000D03*
X179810000Y-82930000D03*
X179810000Y-79070000D03*
X179800000Y-75210000D03*
X179830000Y-84860000D03*
X179850000Y-86790000D03*
X179810000Y-81000000D03*
X179850000Y-88720000D03*
%TD*%
D16*
%TO.N,Net-(D1-Pad2)*%
X175695000Y-75940000D02*
X176425000Y-75210000D01*
X173400000Y-75940000D02*
X175695000Y-75940000D01*
%TO.N,Net-(D2-Pad2)*%
X176025000Y-76740000D02*
X176425000Y-77140000D01*
X173400000Y-76740000D02*
X176025000Y-76740000D01*
%TO.N,Net-(D3-Pad2)*%
X174895000Y-77540000D02*
X176425000Y-79070000D01*
X173400000Y-77540000D02*
X174895000Y-77540000D01*
%TO.N,Net-(D4-Pad2)*%
X173765000Y-78340000D02*
X176425000Y-81000000D01*
X173400000Y-78340000D02*
X173765000Y-78340000D01*
%TO.N,Net-(D5-Pad2)*%
X173400000Y-85590000D02*
X173765000Y-85590000D01*
X173765000Y-85590000D02*
X176425000Y-82930000D01*
%TO.N,Net-(D6-Pad2)*%
X174895000Y-86390000D02*
X176425000Y-84860000D01*
X173400000Y-86390000D02*
X174895000Y-86390000D01*
%TO.N,Net-(D7-Pad2)*%
X176025000Y-87190000D02*
X176425000Y-86790000D01*
X173400000Y-87190000D02*
X176025000Y-87190000D01*
%TO.N,Net-(D8-Pad2)*%
X173400000Y-87990000D02*
X175695000Y-87990000D01*
X175695000Y-87990000D02*
X176425000Y-88720000D01*
%TO.N,/p1*%
X171410000Y-75650000D02*
X171700000Y-75940000D01*
X167640000Y-75650000D02*
X171410000Y-75650000D01*
%TO.N,/p3*%
X167640000Y-78190000D02*
X168290000Y-77540000D01*
X168290000Y-77540000D02*
X171700000Y-77540000D01*
%TO.N,/p5*%
X167640000Y-80730000D02*
X171700000Y-84790000D01*
X171700000Y-84790000D02*
X171700000Y-85590000D01*
%TO.N,/p7*%
X171450000Y-87190000D02*
X167640000Y-83380000D01*
X171700000Y-87190000D02*
X171450000Y-87190000D01*
X167640000Y-83380000D02*
X167640000Y-83270000D01*
%TO.N,/p2*%
X171661089Y-76778911D02*
X166228911Y-76778911D01*
X166228911Y-76778911D02*
X165100000Y-75650000D01*
X171700000Y-76740000D02*
X171661089Y-76778911D01*
%TO.N,/p4*%
X170721089Y-79318911D02*
X166228911Y-79318911D01*
X171700000Y-78340000D02*
X170721089Y-79318911D01*
X166228911Y-79318911D02*
X165100000Y-78190000D01*
%TO.N,/p6*%
X171292178Y-86390000D02*
X171700000Y-86390000D01*
X166228911Y-81858911D02*
X167858911Y-81858911D01*
X170971089Y-84971089D02*
X170971089Y-86068911D01*
X165100000Y-80730000D02*
X166228911Y-81858911D01*
X167858911Y-81858911D02*
X170971089Y-84971089D01*
X170971089Y-86068911D02*
X171292178Y-86390000D01*
%TO.N,/p8*%
X166228911Y-84398911D02*
X167838911Y-84398911D01*
X171430000Y-87990000D02*
X171700000Y-87990000D01*
X167838911Y-84398911D02*
X171430000Y-87990000D01*
X165100000Y-83270000D02*
X166228911Y-84398911D01*
%TD*%
%TA.AperFunction,Conductor*%
%TO.N,GND*%
G36*
X179932070Y-74504008D02*
G01*
X179946851Y-74506310D01*
X179946855Y-74506310D01*
X179955724Y-74507691D01*
X179964626Y-74506527D01*
X179964750Y-74506511D01*
X179995192Y-74506240D01*
X180008070Y-74507691D01*
X180057264Y-74513234D01*
X180084771Y-74519513D01*
X180161853Y-74546485D01*
X180187274Y-74558727D01*
X180256426Y-74602178D01*
X180278485Y-74619770D01*
X180336230Y-74677515D01*
X180353822Y-74699574D01*
X180397273Y-74768726D01*
X180409515Y-74794147D01*
X180436487Y-74871228D01*
X180442766Y-74898736D01*
X180449018Y-74954226D01*
X180448923Y-74969868D01*
X180449800Y-74969879D01*
X180449691Y-74978849D01*
X180448309Y-74987724D01*
X180452431Y-75019242D01*
X180453495Y-75035596D01*
X180452929Y-78995088D01*
X180451507Y-88950604D01*
X180450007Y-88969970D01*
X180447690Y-88984850D01*
X180447690Y-88984855D01*
X180446309Y-88993724D01*
X180447473Y-89002626D01*
X180447489Y-89002750D01*
X180447760Y-89033193D01*
X180440766Y-89095264D01*
X180434487Y-89122771D01*
X180407515Y-89199853D01*
X180395273Y-89225274D01*
X180351822Y-89294426D01*
X180334230Y-89316485D01*
X180276485Y-89374230D01*
X180254426Y-89391822D01*
X180185274Y-89435273D01*
X180159853Y-89447515D01*
X180082772Y-89474487D01*
X180055264Y-89480766D01*
X179999774Y-89487018D01*
X179984129Y-89486923D01*
X179984118Y-89487800D01*
X179975149Y-89487690D01*
X179966276Y-89486309D01*
X179957374Y-89487473D01*
X179934733Y-89490433D01*
X179918388Y-89491496D01*
X179234826Y-89491443D01*
X179166707Y-89471436D01*
X179120218Y-89417776D01*
X179110120Y-89347502D01*
X179127576Y-89299327D01*
X179138912Y-89280937D01*
X179145056Y-89267759D01*
X179195315Y-89116234D01*
X179198181Y-89102868D01*
X179207672Y-89010230D01*
X179208000Y-89003815D01*
X179208000Y-88992115D01*
X179203525Y-88976876D01*
X179202135Y-88975671D01*
X179194452Y-88974000D01*
X178047000Y-88974000D01*
X177978879Y-88953998D01*
X177932386Y-88900342D01*
X177921000Y-88848000D01*
X177921000Y-88447885D01*
X178429000Y-88447885D01*
X178433475Y-88463124D01*
X178434865Y-88464329D01*
X178442548Y-88466000D01*
X179189885Y-88466000D01*
X179205124Y-88461525D01*
X179206329Y-88460135D01*
X179208000Y-88452452D01*
X179208000Y-88436234D01*
X179207663Y-88429718D01*
X179197925Y-88335868D01*
X179195032Y-88322472D01*
X179144512Y-88171047D01*
X179138347Y-88157885D01*
X179054574Y-88022508D01*
X179045540Y-88011110D01*
X178932871Y-87898637D01*
X178921460Y-87889625D01*
X178877020Y-87862232D01*
X178829527Y-87809460D01*
X178818103Y-87739388D01*
X178846377Y-87674264D01*
X178876834Y-87647827D01*
X178922493Y-87619573D01*
X178933890Y-87610540D01*
X179046363Y-87497871D01*
X179055375Y-87486460D01*
X179138912Y-87350937D01*
X179145056Y-87337759D01*
X179195315Y-87186234D01*
X179198181Y-87172868D01*
X179207672Y-87080230D01*
X179208000Y-87073815D01*
X179208000Y-87062115D01*
X179203525Y-87046876D01*
X179202135Y-87045671D01*
X179194452Y-87044000D01*
X178447115Y-87044000D01*
X178431876Y-87048475D01*
X178430671Y-87049865D01*
X178429000Y-87057548D01*
X178429000Y-88447885D01*
X177921000Y-88447885D01*
X177921000Y-86517885D01*
X178429000Y-86517885D01*
X178433475Y-86533124D01*
X178434865Y-86534329D01*
X178442548Y-86536000D01*
X179189885Y-86536000D01*
X179205124Y-86531525D01*
X179206329Y-86530135D01*
X179208000Y-86522452D01*
X179208000Y-86506234D01*
X179207663Y-86499718D01*
X179197925Y-86405868D01*
X179195032Y-86392472D01*
X179144512Y-86241047D01*
X179138347Y-86227885D01*
X179054574Y-86092508D01*
X179045540Y-86081110D01*
X178932871Y-85968637D01*
X178921460Y-85959625D01*
X178877020Y-85932232D01*
X178829527Y-85879460D01*
X178818103Y-85809388D01*
X178846377Y-85744264D01*
X178876834Y-85717827D01*
X178922493Y-85689573D01*
X178933890Y-85680540D01*
X179046363Y-85567871D01*
X179055375Y-85556460D01*
X179138912Y-85420937D01*
X179145056Y-85407759D01*
X179195315Y-85256234D01*
X179198181Y-85242868D01*
X179207672Y-85150230D01*
X179208000Y-85143815D01*
X179208000Y-85132115D01*
X179203525Y-85116876D01*
X179202135Y-85115671D01*
X179194452Y-85114000D01*
X178447115Y-85114000D01*
X178431876Y-85118475D01*
X178430671Y-85119865D01*
X178429000Y-85127548D01*
X178429000Y-86517885D01*
X177921000Y-86517885D01*
X177921000Y-84587885D01*
X178429000Y-84587885D01*
X178433475Y-84603124D01*
X178434865Y-84604329D01*
X178442548Y-84606000D01*
X179189885Y-84606000D01*
X179205124Y-84601525D01*
X179206329Y-84600135D01*
X179208000Y-84592452D01*
X179208000Y-84576234D01*
X179207663Y-84569718D01*
X179197925Y-84475868D01*
X179195032Y-84462472D01*
X179144512Y-84311047D01*
X179138347Y-84297885D01*
X179054574Y-84162508D01*
X179045540Y-84151110D01*
X178932871Y-84038637D01*
X178921460Y-84029625D01*
X178877020Y-84002232D01*
X178829527Y-83949460D01*
X178818103Y-83879388D01*
X178846377Y-83814264D01*
X178876834Y-83787827D01*
X178922493Y-83759573D01*
X178933890Y-83750540D01*
X179046363Y-83637871D01*
X179055375Y-83626460D01*
X179138912Y-83490937D01*
X179145056Y-83477759D01*
X179195315Y-83326234D01*
X179198181Y-83312868D01*
X179207672Y-83220230D01*
X179208000Y-83213815D01*
X179208000Y-83202115D01*
X179203525Y-83186876D01*
X179202135Y-83185671D01*
X179194452Y-83184000D01*
X178447115Y-83184000D01*
X178431876Y-83188475D01*
X178430671Y-83189865D01*
X178429000Y-83197548D01*
X178429000Y-84587885D01*
X177921000Y-84587885D01*
X177921000Y-82657885D01*
X178429000Y-82657885D01*
X178433475Y-82673124D01*
X178434865Y-82674329D01*
X178442548Y-82676000D01*
X179189885Y-82676000D01*
X179205124Y-82671525D01*
X179206329Y-82670135D01*
X179208000Y-82662452D01*
X179208000Y-82646234D01*
X179207663Y-82639718D01*
X179197925Y-82545868D01*
X179195032Y-82532472D01*
X179144512Y-82381047D01*
X179138347Y-82367885D01*
X179054574Y-82232508D01*
X179045540Y-82221110D01*
X178932871Y-82108637D01*
X178921460Y-82099625D01*
X178877020Y-82072232D01*
X178829527Y-82019460D01*
X178818103Y-81949388D01*
X178846377Y-81884264D01*
X178876834Y-81857827D01*
X178922493Y-81829573D01*
X178933890Y-81820540D01*
X179046363Y-81707871D01*
X179055375Y-81696460D01*
X179138912Y-81560937D01*
X179145056Y-81547759D01*
X179195315Y-81396234D01*
X179198181Y-81382868D01*
X179207672Y-81290230D01*
X179208000Y-81283815D01*
X179208000Y-81272115D01*
X179203525Y-81256876D01*
X179202135Y-81255671D01*
X179194452Y-81254000D01*
X178447115Y-81254000D01*
X178431876Y-81258475D01*
X178430671Y-81259865D01*
X178429000Y-81267548D01*
X178429000Y-82657885D01*
X177921000Y-82657885D01*
X177921000Y-80727885D01*
X178429000Y-80727885D01*
X178433475Y-80743124D01*
X178434865Y-80744329D01*
X178442548Y-80746000D01*
X179189885Y-80746000D01*
X179205124Y-80741525D01*
X179206329Y-80740135D01*
X179208000Y-80732452D01*
X179208000Y-80716234D01*
X179207663Y-80709718D01*
X179197925Y-80615868D01*
X179195032Y-80602472D01*
X179144512Y-80451047D01*
X179138347Y-80437885D01*
X179054574Y-80302508D01*
X179045540Y-80291110D01*
X178932871Y-80178637D01*
X178921460Y-80169625D01*
X178877020Y-80142232D01*
X178829527Y-80089460D01*
X178818103Y-80019388D01*
X178846377Y-79954264D01*
X178876834Y-79927827D01*
X178922493Y-79899573D01*
X178933890Y-79890540D01*
X179046363Y-79777871D01*
X179055375Y-79766460D01*
X179138912Y-79630937D01*
X179145056Y-79617759D01*
X179195315Y-79466234D01*
X179198181Y-79452868D01*
X179207672Y-79360230D01*
X179208000Y-79353815D01*
X179208000Y-79342115D01*
X179203525Y-79326876D01*
X179202135Y-79325671D01*
X179194452Y-79324000D01*
X178447115Y-79324000D01*
X178431876Y-79328475D01*
X178430671Y-79329865D01*
X178429000Y-79337548D01*
X178429000Y-80727885D01*
X177921000Y-80727885D01*
X177921000Y-78797885D01*
X178429000Y-78797885D01*
X178433475Y-78813124D01*
X178434865Y-78814329D01*
X178442548Y-78816000D01*
X179189885Y-78816000D01*
X179205124Y-78811525D01*
X179206329Y-78810135D01*
X179208000Y-78802452D01*
X179208000Y-78786234D01*
X179207663Y-78779718D01*
X179197925Y-78685868D01*
X179195032Y-78672472D01*
X179144512Y-78521047D01*
X179138347Y-78507885D01*
X179054574Y-78372508D01*
X179045540Y-78361110D01*
X178932871Y-78248637D01*
X178921460Y-78239625D01*
X178877020Y-78212232D01*
X178829527Y-78159460D01*
X178818103Y-78089388D01*
X178846377Y-78024264D01*
X178876834Y-77997827D01*
X178922493Y-77969573D01*
X178933890Y-77960540D01*
X179046363Y-77847871D01*
X179055375Y-77836460D01*
X179138912Y-77700937D01*
X179145056Y-77687759D01*
X179195315Y-77536234D01*
X179198181Y-77522868D01*
X179207672Y-77430230D01*
X179208000Y-77423815D01*
X179208000Y-77412115D01*
X179203525Y-77396876D01*
X179202135Y-77395671D01*
X179194452Y-77394000D01*
X178447115Y-77394000D01*
X178431876Y-77398475D01*
X178430671Y-77399865D01*
X178429000Y-77407548D01*
X178429000Y-78797885D01*
X177921000Y-78797885D01*
X177921000Y-76867885D01*
X178429000Y-76867885D01*
X178433475Y-76883124D01*
X178434865Y-76884329D01*
X178442548Y-76886000D01*
X179189885Y-76886000D01*
X179205124Y-76881525D01*
X179206329Y-76880135D01*
X179208000Y-76872452D01*
X179208000Y-76856234D01*
X179207663Y-76849718D01*
X179197925Y-76755868D01*
X179195032Y-76742472D01*
X179144512Y-76591047D01*
X179138347Y-76577885D01*
X179054574Y-76442508D01*
X179045540Y-76431110D01*
X178932871Y-76318637D01*
X178921460Y-76309625D01*
X178877020Y-76282232D01*
X178829527Y-76229460D01*
X178818103Y-76159388D01*
X178846377Y-76094264D01*
X178876834Y-76067827D01*
X178922493Y-76039573D01*
X178933890Y-76030540D01*
X179046363Y-75917871D01*
X179055375Y-75906460D01*
X179138912Y-75770937D01*
X179145056Y-75757759D01*
X179195315Y-75606234D01*
X179198181Y-75592868D01*
X179207672Y-75500230D01*
X179208000Y-75493815D01*
X179208000Y-75482115D01*
X179203525Y-75466876D01*
X179202135Y-75465671D01*
X179194452Y-75464000D01*
X178447115Y-75464000D01*
X178431876Y-75468475D01*
X178430671Y-75469865D01*
X178429000Y-75477548D01*
X178429000Y-76867885D01*
X177921000Y-76867885D01*
X177921000Y-75082000D01*
X177941002Y-75013879D01*
X177994658Y-74967386D01*
X178047000Y-74956000D01*
X179189885Y-74956000D01*
X179205124Y-74951525D01*
X179206329Y-74950135D01*
X179208000Y-74942452D01*
X179208000Y-74926234D01*
X179207663Y-74919718D01*
X179197925Y-74825868D01*
X179195032Y-74812472D01*
X179146991Y-74668476D01*
X179144407Y-74597527D01*
X179180590Y-74536443D01*
X179244055Y-74504618D01*
X179266489Y-74502601D01*
X179912669Y-74502507D01*
X179932070Y-74504008D01*
G37*
%TD.AperFunction*%
%TA.AperFunction,Conductor*%
G36*
X164088628Y-74524794D02*
G01*
X164135129Y-74578443D01*
X164145243Y-74648716D01*
X164111617Y-74717853D01*
X164040629Y-74792138D01*
X164037715Y-74796410D01*
X164037714Y-74796411D01*
X164017620Y-74825868D01*
X163914743Y-74976680D01*
X163890034Y-75029912D01*
X163825071Y-75169863D01*
X163820688Y-75179305D01*
X163760989Y-75394570D01*
X163737251Y-75616695D01*
X163737548Y-75621848D01*
X163737548Y-75621851D01*
X163745797Y-75764920D01*
X163750110Y-75839715D01*
X163751247Y-75844761D01*
X163751248Y-75844767D01*
X163765152Y-75906460D01*
X163799222Y-76057639D01*
X163883266Y-76264616D01*
X163911339Y-76310427D01*
X163951042Y-76375216D01*
X163999987Y-76455088D01*
X164146250Y-76623938D01*
X164318126Y-76766632D01*
X164388595Y-76807811D01*
X164391445Y-76809476D01*
X164440169Y-76861114D01*
X164453240Y-76930897D01*
X164426509Y-76996669D01*
X164386055Y-77030027D01*
X164373607Y-77036507D01*
X164369474Y-77039610D01*
X164369471Y-77039612D01*
X164199100Y-77167530D01*
X164194965Y-77170635D01*
X164040629Y-77332138D01*
X163914743Y-77516680D01*
X163820688Y-77719305D01*
X163760989Y-77934570D01*
X163737251Y-78156695D01*
X163737548Y-78161848D01*
X163737548Y-78161851D01*
X163742079Y-78240427D01*
X163750110Y-78379715D01*
X163751247Y-78384761D01*
X163751248Y-78384767D01*
X163754629Y-78399767D01*
X163799222Y-78597639D01*
X163883266Y-78804616D01*
X163885965Y-78809020D01*
X163946321Y-78907512D01*
X163999987Y-78995088D01*
X164146250Y-79163938D01*
X164318126Y-79306632D01*
X164352770Y-79326876D01*
X164391445Y-79349476D01*
X164440169Y-79401114D01*
X164453240Y-79470897D01*
X164426509Y-79536669D01*
X164386055Y-79570027D01*
X164373607Y-79576507D01*
X164369474Y-79579610D01*
X164369471Y-79579612D01*
X164199100Y-79707530D01*
X164194965Y-79710635D01*
X164191393Y-79714373D01*
X164048540Y-79863860D01*
X164040629Y-79872138D01*
X164037715Y-79876410D01*
X164037714Y-79876411D01*
X163984606Y-79954264D01*
X163914743Y-80056680D01*
X163899527Y-80089460D01*
X163831870Y-80235216D01*
X163820688Y-80259305D01*
X163760989Y-80474570D01*
X163737251Y-80696695D01*
X163737548Y-80701848D01*
X163737548Y-80701851D01*
X163743011Y-80796590D01*
X163750110Y-80919715D01*
X163751247Y-80924761D01*
X163751248Y-80924767D01*
X163771119Y-81012939D01*
X163799222Y-81137639D01*
X163883266Y-81344616D01*
X163999987Y-81535088D01*
X164146250Y-81703938D01*
X164219537Y-81764782D01*
X164299023Y-81830772D01*
X164318126Y-81846632D01*
X164337183Y-81857768D01*
X164391445Y-81889476D01*
X164440169Y-81941114D01*
X164453240Y-82010897D01*
X164426509Y-82076669D01*
X164386055Y-82110027D01*
X164373607Y-82116507D01*
X164369474Y-82119610D01*
X164369471Y-82119612D01*
X164218149Y-82233228D01*
X164194965Y-82250635D01*
X164040629Y-82412138D01*
X163914743Y-82596680D01*
X163820688Y-82799305D01*
X163760989Y-83014570D01*
X163737251Y-83236695D01*
X163750110Y-83459715D01*
X163751247Y-83464761D01*
X163751248Y-83464767D01*
X163754176Y-83477759D01*
X163799222Y-83677639D01*
X163843965Y-83787828D01*
X163881144Y-83879389D01*
X163883266Y-83884616D01*
X163885965Y-83889020D01*
X163994599Y-84066295D01*
X163999987Y-84075088D01*
X164146250Y-84243938D01*
X164318126Y-84386632D01*
X164326955Y-84391791D01*
X164391955Y-84429774D01*
X164440679Y-84481412D01*
X164453750Y-84551195D01*
X164427019Y-84616967D01*
X164386562Y-84650327D01*
X164378457Y-84654546D01*
X164369738Y-84660036D01*
X164199433Y-84787905D01*
X164191726Y-84794748D01*
X164044590Y-84948717D01*
X164038104Y-84956727D01*
X163918098Y-85132649D01*
X163913000Y-85141623D01*
X163823338Y-85334783D01*
X163819775Y-85344470D01*
X163764389Y-85544183D01*
X163765912Y-85552607D01*
X163778292Y-85556000D01*
X167768000Y-85556000D01*
X167836121Y-85576002D01*
X167882614Y-85629658D01*
X167894000Y-85682000D01*
X167894000Y-85938000D01*
X167873998Y-86006121D01*
X167820342Y-86052614D01*
X167768000Y-86064000D01*
X163783225Y-86064000D01*
X163769694Y-86067973D01*
X163768257Y-86077966D01*
X163798565Y-86212446D01*
X163801645Y-86222275D01*
X163881770Y-86419603D01*
X163886413Y-86428794D01*
X163997694Y-86610388D01*
X164003777Y-86618699D01*
X164143213Y-86779667D01*
X164150580Y-86786883D01*
X164314434Y-86922916D01*
X164322881Y-86928831D01*
X164391969Y-86969203D01*
X164440693Y-87020842D01*
X164453764Y-87090625D01*
X164427033Y-87156396D01*
X164386584Y-87189752D01*
X164373607Y-87196507D01*
X164369474Y-87199610D01*
X164369471Y-87199612D01*
X164345247Y-87217800D01*
X164194965Y-87330635D01*
X164040629Y-87492138D01*
X164037720Y-87496403D01*
X164037714Y-87496411D01*
X163959861Y-87610540D01*
X163914743Y-87676680D01*
X163820688Y-87879305D01*
X163760989Y-88094570D01*
X163737251Y-88316695D01*
X163737548Y-88321848D01*
X163737548Y-88321851D01*
X163745602Y-88461525D01*
X163750110Y-88539715D01*
X163751247Y-88544761D01*
X163751248Y-88544767D01*
X163769443Y-88625500D01*
X163799222Y-88757639D01*
X163835914Y-88848000D01*
X163878955Y-88953998D01*
X163883266Y-88964616D01*
X163925290Y-89033193D01*
X163997291Y-89150688D01*
X163999987Y-89155088D01*
X164003367Y-89158990D01*
X164109716Y-89281762D01*
X164139199Y-89346348D01*
X164129084Y-89416620D01*
X164082583Y-89470269D01*
X164014469Y-89490260D01*
X163085467Y-89490188D01*
X162004978Y-89490104D01*
X161985608Y-89488604D01*
X161961876Y-89484909D01*
X161952974Y-89486073D01*
X161952850Y-89486089D01*
X161922408Y-89486360D01*
X161901730Y-89484030D01*
X161860336Y-89479366D01*
X161832829Y-89473087D01*
X161755747Y-89446115D01*
X161730326Y-89433873D01*
X161661174Y-89390422D01*
X161639115Y-89372830D01*
X161581370Y-89315085D01*
X161563778Y-89293026D01*
X161520327Y-89223874D01*
X161508085Y-89198453D01*
X161481113Y-89121372D01*
X161474834Y-89093866D01*
X161470679Y-89056994D01*
X161468770Y-89040047D01*
X161468488Y-89015240D01*
X161469176Y-89011152D01*
X161469252Y-89004876D01*
X161469270Y-89003465D01*
X161469270Y-89003461D01*
X161469329Y-88998600D01*
X161466046Y-88975671D01*
X161465392Y-88971105D01*
X161464120Y-88953191D01*
X161470078Y-75049929D01*
X161471824Y-75029081D01*
X161474369Y-75013952D01*
X161474370Y-75013941D01*
X161475176Y-75009152D01*
X161475329Y-74996600D01*
X161474640Y-74991788D01*
X161474323Y-74986927D01*
X161474608Y-74986908D01*
X161474207Y-74960149D01*
X161480834Y-74901336D01*
X161487113Y-74873829D01*
X161514085Y-74796747D01*
X161526327Y-74771326D01*
X161569778Y-74702174D01*
X161587370Y-74680115D01*
X161645115Y-74622370D01*
X161667174Y-74604778D01*
X161736326Y-74561327D01*
X161761747Y-74549085D01*
X161838828Y-74522113D01*
X161866336Y-74515834D01*
X161921826Y-74509582D01*
X161937468Y-74509677D01*
X161937479Y-74508800D01*
X161946451Y-74508910D01*
X161955324Y-74510291D01*
X161964225Y-74509127D01*
X161964230Y-74509127D01*
X161986930Y-74506158D01*
X162003250Y-74505094D01*
X162617161Y-74505005D01*
X164020506Y-74504802D01*
X164088628Y-74524794D01*
G37*
%TD.AperFunction*%
%TD*%
M02*
